# xmcd CD database file generated by libcdaudio 0.99.6
# 
# Track frame offsets:
#       150
#       16543
#       38299
#       53192
#       74988
#       89110
#       105310
#       120575
#       137369
#       153375
#       167156
#       182267
# 
# Disc length: 3052 seconds
# 
# Revision: 1
# Processed by: cddbd v1.4PL0 Copyright (c) Steve Scherf et al.
# Submitted via: libcdaudio 0.99.6
# 
DISCID=8f0bea0c
DTITLE=dawn kenny - through the loop
DYEAR=1900
DGENRE=
TTITLE0=julie
TTITLE1=out of sight
TTITLE2=playing on my mind
TTITLE3=i don't wanna see you cry
TTITLE4=give yourself away
TTITLE5=sun doesn't shine
TTITLE6=i think i'll stay at home tonight (in memory of johnny)
TTITLE7=mountain top
TTITLE8=i can't make you love me
TTITLE9=long way down
TTITLE10=blue without you
TTITLE11=only then
EXTD=
EXTT0=
EXTT1=
EXTT2=
EXTT3=
EXTT4=
EXTT5=
EXTT6=
EXTT7=
EXTT8=
EXTT9=
EXTT10=
EXTT11=
PLAYORDER=
